Coordinates
version=1
nRows=26
nColumns=24
inDegrees=yes

Units are S.I. units (second, meters, Newtons, ...)
Angles are in degrees.

endheader
time	pelvis_tilt	pelvis_list	pelvis_rotation	pelvis_tx	pelvis_ty	pelvis_tz	hip_flexion_r	hip_adduction_r	hip_rotation_r	knee_angle_r	ankle_angle_r	subtalar_angle_r	mtp_angle_r	hip_flexion_l	hip_adduction_l	hip_rotation_l	knee_angle_l	ankle_angle_l	subtalar_angle_l	mtp_angle_l	lumbar_extension	lumbar_bending	lumbar_rotation
      1.26650000	     -0.41629511	      4.61039345	     -2.20885042	      0.16686030	      0.91659339	      0.31058958	     16.86166744	     -9.00013719	    -10.13155355	    -71.36832471	     -6.02877089	      2.61160323	      9.90020222	     11.47510357	      9.54408846	      2.07604905	    -16.37944651	      3.14712450	    -17.65518568	     -0.18541085	     -8.35611574	     -9.49928700	      0.98369170
      1.27066667	     -0.48030952	      4.44564073	     -2.09148978	      0.17206482	      0.91762850	      0.31035842	     17.53705080	     -8.78977524	    -10.20859914	    -70.97740691	     -5.36506754	      2.48179052	      7.02292246	     10.91339989	      9.40718478	      2.33100111	    -15.88000653	      3.12322539	    -17.71438971	     -0.39290413	     -8.30239042	     -9.27578815	      0.79029978
      1.27483333	     -0.44035956	      4.24041966	     -1.99794524	      0.17727440	      0.91883313	      0.31019362	     18.06147585	     -8.52018358	    -10.27803179	    -70.46264477	     -4.85247514	      2.24122804	      7.00149090	     10.24368638	      9.20817942	      2.47395086	    -15.39643807	      3.22006524	    -17.58000421	     -0.39290637	     -8.39405522	     -9.01021213	      0.65578527
      1.27900000	     -0.42708974	      4.03142151	     -1.87492671	      0.18248162	      0.91998043	      0.30997943	     18.58643965	     -8.25395688	    -10.37405235	    -69.87518953	     -4.34809031	      2.07481826	      6.96979577	      9.59889875	      9.01075267	      2.68128218	    -14.90030786	      3.26716770	    -17.51816887	     -0.39241116	     -8.44675251	     -8.73022743	      0.43802686
      1.28316667	     -0.43398098	      3.81884554	     -1.74740580	      0.18766686	      0.92106824	      0.30976946	     19.11624955	     -7.97720926	    -10.46618157	    -69.22452350	     -3.82414536	      1.92426488	      6.95034579	      8.98772325	      8.80270695	      2.86790929	    -14.41913310	      3.27987796	    -17.44153335	     -0.39071503	     -8.48106849	     -8.45801158	      0.28814059
      1.28733333	     -0.38208827	      3.60028501	     -1.60843174	      0.19287566	      0.92223720	      0.30951487	     19.54570570	     -7.70872284	    -10.58515957	    -68.48219289	     -3.38402585	      1.80704874	      6.89952110	      8.28621323	      8.59394125	      3.10295335	    -13.88457472	      3.31724100	    -17.41405422	     -0.38671733	     -8.57613867	     -8.15216562	      0.00479220
      1.29150000	     -0.38840020	      3.38887553	     -1.46789473	      0.19806921	      0.92326024	      0.30927015	     20.02960155	     -7.44289061	    -10.69838427	    -67.69830570	     -2.88036912	      1.69089024	      6.87718977	      7.67616546	      8.38007027	      3.26276130	    -13.39568964	      3.31400642	    -17.32801968	     -0.38342703	     -8.58557136	     -7.84817025	     -0.12747641
      1.29566667	     -0.34141671	      3.14624935	     -1.30808217	      0.20324114	      0.92436745	      0.30901336	     20.41399581	     -7.14199067	    -10.83034642	    -66.81024166	     -2.44175491	      1.60445377	      6.83931597	      6.99971093	      8.13389441	      3.47919362	    -12.88887079	      3.33007835	    -17.26288847	     -0.37788669	     -8.68888085	     -7.52420130	     -0.34381547
      1.29983333	     -0.25952436	      2.92634608	     -1.15012790	      0.20841862	      0.92547886	      0.30874986	     20.74334122	     -6.87204887	    -10.95999868	    -65.86355150	     -2.06437799	      1.52150559	      6.75609416	      6.26966620	      7.91148888	      3.71763909	    -12.34458281	      3.35939229	    -17.22898382	     -0.36669237	     -8.83358824	     -7.23701017	     -0.67603590
      1.30400000	     -0.21088291	      2.69567518	     -0.97929552	      0.21357790	      0.92649353	      0.30847546	     21.08662907	     -6.58990240	    -11.10040652	    -64.85529581	     -1.65885874	      1.44498452	      6.67502512	      5.59837791	      7.66993302	      3.91647445	    -11.83834114	      3.36996789	    -17.16368855	     -0.35424188	     -8.92832094	     -6.92367550	     -0.90709413
      1.30816667	     -0.14925279	      2.47191818	     -0.80552464	      0.21873726	      0.92748098	      0.30819135	     21.39526706	     -6.31781323	    -11.23939959	    -63.78654640	     -1.27306625	      1.35970783	      6.56802400	      4.91458960	      7.43205491	      4.11647756	    -11.33169531	      3.37561245	    -17.08630465	     -0.33648028	     -9.04177033	     -6.61362423	     -1.16318143
      1.31233333	     -0.08644630	      2.24290245	     -0.62101395	      0.22388444	      0.92842746	      0.30790702	     21.67750067	     -6.04102666	    -11.39042865	    -62.64877826	     -0.91806390	      1.27817458	      6.46601508	      4.23882772	      7.18201199	      4.29892409	    -10.83595357	      3.39842509	    -16.99604227	     -0.31791528	     -9.15242229	     -6.29911749	     -1.38736857
      1.31650000	     -0.03981254	      2.01021305	     -0.42231777	      0.22900402	      0.92930062	      0.30761245	     21.95483251	     -5.76061686	    -11.54740563	    -61.44788486	     -0.56348637	      1.20028303	      6.39650806	      3.60424685	      6.92275340	      4.45808178	    -10.37921174	      3.40397969	    -16.89142457	     -0.30391330	     -9.24672211	     -5.98247518	     -1.56197147
      1.32066667	      0.05597154	      1.80239576	     -0.23475482	      0.23415413	      0.93018034	      0.30731680	     22.16311877	     -5.51117957	    -11.69680114	    -60.19968808	     -0.28873812	      1.06964856	      6.27789021	      2.88794187	      6.68846258	      4.64207210	     -9.86572798	      3.45397690	    -16.78274140	     -0.27880987	     -9.39742817	     -5.68393713	     -1.85247714
      1.32483333	      0.10503332	      1.57845610	     -0.02062295	      0.23926923	      0.93094698	      0.30700490	     22.39377646	     -5.24484012	    -11.86249656	    -58.88104553	      0.00986386	      0.96720141	      6.19725297	      2.26447850	      6.43032756	      4.79663273	     -9.42834017	      3.46550769	    -16.66819734	     -0.26065990	     -9.49035750	     -5.37513253	     -2.03951721
      1.32900000	      0.20084202	      1.38540219	      0.18103536	      0.24440322	      0.93170473	      0.30670616	     22.56282581	     -5.01373875	    -12.01707342	    -57.52380638	      0.22176902	      0.79803087	      6.07275009	      1.56316405	      6.20140490	      4.96933847	     -8.93391753	      3.53159485	    -16.54126205	     -0.23186620	     -9.63891276	     -5.09224525	     -2.32587347
      1.33316667	      0.27163177	      1.18976534	      0.39855597	      0.24951794	      0.93237270	      0.30639628	     22.73501104	     -4.77954443	    -12.17825240	    -56.10573498	      0.43074684	      0.62679471	      5.94338814	      0.91402636	      5.96490392	      5.12959291	     -8.48406402	      3.57719205	    -16.41108815	     -0.20158600	     -9.75837190	     -4.81002299	     -2.57592447
      1.33733333	      0.32729015	      0.99165812	      0.63227384	      0.25461824	      0.93296231	      0.30606768	     22.89820226	     -4.54637854	    -12.34928855	    -54.62736537	      0.62854794	      0.45982811	      5.84778681	      0.30726477	      5.72142580	      5.27540158	     -8.08099128	      3.60718378	    -16.27587054	     -0.17869139	     -9.86175318	     -4.52397914	     -2.77331909
      1.34150000	      0.42018580	      0.82722603	      0.84936048	      0.25974321	      0.93352545	      0.30576436	     23.01260301	     -4.34595009	    -12.50165022	    -53.11768670	      0.72917646	      0.20380822	      5.70206705	     -0.36711556	      5.50896621	      5.43230305	     -7.62476027	      3.69752178	    -16.12329630	     -0.14279005	    -10.00283769	     -4.27765802	     -3.07339447
      1.34566667	      0.48777196	      0.66260281	      1.08221204	      0.26485538	      0.93399381	      0.30544388	     23.13000827	     -4.14784767	    -12.66293673	    -51.55312703	      0.83089219	     -0.04544204	      5.54808317	     -0.99155896	      5.29259511	      5.58338366	     -7.20752158	      3.76686316	    -15.96990387	     -0.10469928	    -10.11749390	     -4.02933710	     -3.33583885
      1.34983333	      0.53286413	      0.50019906	      1.33580205	      0.26995648	      0.93437126	      0.30510601	     23.24542213	     -3.95708530	    -12.83796079	    -49.93246156	      0.92223985	     -0.27955148	      5.43483998	     -1.56308367	      5.07385074	      5.73136182	     -6.84348800	      3.81760120	    -15.82595649	     -0.07661626	    -10.20327292	     -3.78119399	     -3.54397922
      1.35400000	      0.59671269	      0.35933201	      1.57886937	      0.27507915	      0.93470066	      0.30477918	     23.32718377	     -3.78501156	    -12.99897326	    -48.27868144	      0.95261283	     -0.57824646	      5.31269793	     -2.17047061	      4.87454646	      5.88597578	     -6.44977410	      3.89647993	    -15.66748773	     -0.04624753	    -10.30701236	     -3.55626955	     -3.79635496
      1.35816667	      0.64839557	      0.23389011	      1.82791621	      0.28019836	      0.93494364	      0.30444600	     23.40524451	     -3.63232787	    -13.16201946	    -46.58817077	      0.95371873	     -0.88888817	      5.18780589	     -2.75407372	      4.68800982	      6.03865084	     -6.07455336	      3.98446456	    -15.50529218	     -0.01545312	    -10.40187915	     -3.35009378	     -4.05480636
      1.36233333	      0.70016980	      0.11815594	      2.08036924	      0.28533276	      0.93512721	      0.30411899	     23.46097750	     -3.48748042	    -13.32352293	    -44.85382312	      0.91817634	     -1.22101679	      5.05554624	     -3.33275470	      4.50706616	      6.19224327	     -5.71087699	      4.07910183	    -15.34205512	      0.01627181	    -10.49135670	     -3.15707866	     -4.32318269
      1.36650000	      0.76362707	      0.04411217	      2.31899309	      0.29046306	      0.93523996	      0.30382126	     23.50005925	     -3.37684156	    -13.45013803	    -43.10982379	      0.85938079	     -1.63979436	      4.73540555	     -3.92958461	      4.36609799	      6.33116748	     -5.33549519	      4.17948005	    -15.12889104	      0.09165392	    -10.59769140	     -3.01762570	     -4.73146098
      1.37066667	      0.80427003	     -0.04544325	      2.56746061	      0.29561322	      0.93527352	      0.30350535	     23.53226367	     -3.25745099	    -13.60426605	    -41.30625737	      0.74919838	     -1.96029032	      4.54611865	     -4.48797796	      4.20738345	      6.49115126	     -4.99258717	      4.31839965	    -14.99146018	      0.13605211	    -10.67467927	     -2.86134187	     -4.94598454
